<svg width="36" height="37" viewBox="0 0 36 37" fill="none" xmlns="http://www.w3.org/2000/svg">
<rect width="36" height="36" transform="translate(0 0.5)" fill="white"/>
<path d="M8.00594 21.4518V12.7308C8.17127 8.00057 12.054 4.25 16.7886 4.25H19.3882C24.0065 4.25 27.7978 7.90063 27.9739 12.514L27.9739 21.4499C27.9739 21.9475 28.1388 22.431 28.4429 22.8249L30.5405 25.5417C30.9211 26.0347 30.5697 26.75 29.9468 26.75H6.04437C5.42229 26.75 5.07063 26.0363 5.44967 25.543L7.54003 22.8227C7.84215 22.4296 8.00594 21.9476 8.00594 21.4518Z" stroke="#4FAAFF" stroke-width="1.5"/>
<path d="M12 27.5C12 29 13.6497 32.75 18 32.75C21.9379 32.75 24 29 24 27.5" stroke="#4FAAFF" stroke-width="1.5"/>
</svg>
