<svg width="36" height="37" viewBox="0 0 36 37" fill="none" xmlns="http://www.w3.org/2000/svg">
<rect width="36" height="36" transform="translate(0 0.5)" fill="white"/>
<path d="M34.7128 17.6204C34.7128 18.2413 34.3349 19.3286 33.4673 20.6948C32.6235 22.0236 31.389 23.5024 29.852 24.8826C26.7662 27.6535 22.5684 29.9352 17.9998 29.9352C13.3796 29.9352 9.1744 28.0502 6.12133 25.5195C3.02803 22.9555 1.28686 19.8809 1.28686 17.6204C1.28686 16.9995 1.66471 15.9122 2.5323 14.5459C3.3761 13.2171 4.61067 11.7384 6.14768 10.3582C9.23345 7.58727 13.4312 5.30556 17.9998 5.30556C22.5684 5.30556 26.7662 7.58727 29.852 10.3582C31.389 11.7384 32.6235 13.2171 33.4673 14.5459C34.3349 15.9122 34.7128 16.9995 34.7128 17.6204Z" stroke="#A5A5A5" stroke-width="1.75926"/>
<path d="M24.1573 17.6204C24.1573 20.4285 21.5146 22.8981 17.9999 22.8981C14.4853 22.8981 11.8425 20.4285 11.8425 17.6204C11.8425 14.8122 14.4853 12.3426 17.9999 12.3426C21.5146 12.3426 24.1573 14.8122 24.1573 17.6204Z" stroke="#A5A5A5" stroke-width="1.75926"/>
</svg>
